<?xml version="1.0" encoding="utf-8"?>
<!-- Generator: Adobe Illustrator 22.1.0, SVG Export Plug-In . SVG Version: 6.00 Build 0)  -->
<svg xmlns="http://www.w3.org/2000/svg" xmlns:xlink="http://www.w3.org/1999/xlink" version="1.1" id="Layer_1" x="0px" y="0px" viewBox="0 0 100 100" style="enable-background:new 0 0 100 100;" xml:space="preserve" width="100px" height="100px">
<style type="text/css">
	.st0{fill:#EE3E54;}
	.st1{fill:#F1BC19;}
	.st2{fill:#FCE0A2;}
	.st3{fill:#FBCD59;}
	.st4{fill:#FFFFFF;}
	.st5{fill:#A1D3A2;}
	.st6{fill:#472B29;}
	.st7{fill:#00AC9C;}
</style>
<g>
	<circle class="st0" cx="13" cy="29" r="2"/>
</g>
<g>
	<circle class="st1" cx="77" cy="13" r="1"/>
</g>
<g>
	<circle class="st2" cx="50" cy="50" r="37"/>
</g>
<g>
	<circle class="st1" cx="83" cy="15" r="4"/>
</g>
<g>
	<circle class="st0" cx="87" cy="24" r="2"/>
</g>
<g>
	<circle class="st3" cx="81" cy="76" r="2"/>
</g>
<g>
	<circle class="st3" cx="15" cy="63" r="4"/>
</g>
<g>
	<circle class="st0" cx="25" cy="87" r="2"/>
</g>
<g>
	<circle class="st4" cx="18.5" cy="53.5" r="2.5"/>
</g>
<g>
	<circle class="st1" cx="21" cy="67" r="1"/>
</g>
<g>
	<circle class="st4" cx="80" cy="34" r="1"/>
</g>
<g>
	<path class="st5" d="M72.4,44v20.4c0,4.3-3.5,7.8-7.8,7.8H35.5c-4.3,0-7.8-3.5-7.8-7.8V35.6c0-4.3,3.5-7.8,7.8-7.8h29.1   c3.6,0,6.6,2.4,7.6,5.8"/>
	<path class="st6" d="M64.5,73H35.5c-4.7,0-8.5-3.8-8.5-8.5V35.6c0-4.7,3.8-8.5,8.5-8.5h29.1c3.8,0,7.2,2.6,8.2,6.3   c0.1,0.4-0.1,0.8-0.5,0.9c-0.4,0.1-0.8-0.1-0.9-0.5c-0.9-3.1-3.7-5.2-6.9-5.2H35.5c-3.9,0-7.1,3.2-7.1,7.1v28.8   c0,3.9,3.2,7.1,7.1,7.1h29.1c3.9,0,7.1-3.2,7.1-7.1V44c0-0.4,0.3-0.7,0.7-0.7s0.7,0.3,0.7,0.7v20.4C73.1,69.1,69.2,73,64.5,73z"/>
</g>
<g>
	<path class="st6" d="M68.5,59.4c-0.3,0-0.5-0.2-0.5-0.5V55c0-0.3,0.2-0.5,0.5-0.5S69,54.7,69,55v3.9C69,59.2,68.8,59.4,68.5,59.4z"/>
</g>
<g>
	<path class="st6" d="M68.5,52.5c-0.3,0-0.5-0.2-0.5-0.5v-2c0-0.3,0.2-0.5,0.5-0.5S69,49.7,69,50v2C69,52.3,68.8,52.5,68.5,52.5z"/>
</g>
<g>
	<path class="st6" d="M64,69H36c-2.8,0-5-2.2-5-5V36c0-2.8,2.2-5,5-5h25.4c0.3,0,0.5,0.2,0.5,0.5S61.7,32,61.4,32H36   c-2.2,0-4,1.8-4,4v28c0,2.2,1.8,4,4,4h28c2.2,0,4-1.8,4-4v-2.4c0-0.3,0.2-0.5,0.5-0.5s0.5,0.2,0.5,0.5V64C69,66.8,66.8,69,64,69z"/>
</g>
<g>
	<g>
		<path class="st7" d="M49.5,62.5l-0.1,0c-0.1,0-0.1,0-0.2,0c-0.4,0-0.8-0.1-1-0.4l-8.3-8.2c-0.3-0.3-0.4-0.6-0.4-1s0.2-0.8,0.4-1    c0.3-0.3,0.6-0.4,1-0.4c0.4,0,0.8,0.2,1,0.4l7.1,7.4l24-23.3c0.3-0.3,0.6-0.4,1-0.4c0.4,0,0.8,0.2,1,0.4c0.3,0.3,0.4,0.6,0.4,1    s-0.2,0.8-0.4,1L50.6,62.1c-0.1,0.1-0.2,0.2-0.4,0.3c0,0-0.1,0-0.1,0.1c-0.1,0-0.2,0.1-0.3,0.1C49.7,62.5,49.7,62.5,49.5,62.5    L49.5,62.5z"/>
	</g>
	<g>
		<path class="st6" d="M74.2,36c0.3,0,0.5,0.1,0.7,0.3c0.4,0.4,0.4,1,0,1.4l-24.6,24c-0.1,0.1-0.2,0.1-0.3,0.2c0,0-0.1,0-0.1,0    c-0.1,0-0.1,0-0.2,0c0,0-0.1,0-0.1,0c-0.1,0-0.1,0-0.1,0c0,0,0,0,0,0c-0.1,0-0.1,0-0.2,0c-0.2,0-0.5-0.1-0.7-0.3l-8.3-8.2    c-0.4-0.4-0.4-1,0-1.4c0.2-0.2,0.4-0.3,0.7-0.3s0.5,0.1,0.7,0.3l7.5,7.8l24.4-23.6C73.7,36.1,73.9,36,74.2,36 M74.2,35    c-0.5,0-1,0.2-1.4,0.6L49.2,58.5l-6.8-7.1c-0.4-0.4-0.9-0.6-1.4-0.6s-1,0.2-1.4,0.6c-0.4,0.4-0.6,0.9-0.6,1.4c0,0.5,0.2,1,0.6,1.4    l8.3,8.2c0.4,0.4,0.8,0.6,1.4,0.6c0,0,0.1,0,0.1,0c0.1,0,0.1,0,0.2,0c0.1,0,0.3,0,0.3,0c0.1,0,0.2,0,0.3-0.1    c0.1,0,0.2-0.1,0.2-0.1c0.2-0.1,0.4-0.2,0.5-0.4l24.6-24c0.4-0.4,0.6-0.9,0.6-1.4c0-0.5-0.2-1-0.6-1.4C75.2,35.2,74.7,35,74.2,35    L74.2,35z"/>
	</g>
</g>
</svg>
